<?xml version="1.0" encoding="UTF-8"?><!DOCTYPE svg PUBLIC "-//W3C//DTD SVG 1.1//EN" "http://www.w3.org/Graphics/SVG/1.1/DTD/svg11.dtd"><svg xmlns="http://www.w3.org/2000/svg" xmlns:xlink="http://www.w3.org/1999/xlink"><symbol id="android-logo" viewBox="0 0 43 47">
<path d="M34.8864 14.0617H8.11359C8.11359 14.1718 8.11359 14.282 8.11359 14.3922V33.1955C8.10298 34.1078 8.44648 34.99 9.0745 35.6633C9.70251 36.3367 10.5681 36.7508 11.496 36.8219V44.2751C11.5402 45.0122 11.8701 45.7048 12.4181 46.2114C12.9661 46.7179 13.6909 47 14.444 47C15.1972 47 15.9219 46.7179 16.4699 46.2114C17.0179 45.7048 17.3478 45.0122 17.3921 44.2751V36.842H25.6283V44.2751C25.6726 45.0122 26.0025 45.7048 26.5505 46.2114C27.0985 46.7179 27.8232 47 28.5764 47C29.3296 47 30.0543 46.7179 30.6023 46.2114C31.1503 45.7048 31.4802 45.0122 31.5245 44.2751V36.8219C32.4532 36.7509 33.32 36.3371 33.9496 35.664C34.5793 34.991 34.925 34.1088 34.917 33.1955V14.4023C34.9068 14.2921 34.8966 14.1819 34.8864 14.0617Z" fill="#A4C639"/>
<path d="M2.95318 15.7446C3.73371 15.7446 4.48226 16.0486 5.03417 16.5897C5.58609 17.1307 5.89615 17.8646 5.89615 18.6297V31.0317C5.89749 31.4114 5.82236 31.7876 5.67507 32.1388C5.52777 32.49 5.31121 32.8093 5.03779 33.0782C4.76438 33.3472 4.4395 33.5606 4.08177 33.7062C3.72405 33.8518 3.34052 33.9268 2.95318 33.9268C2.16995 33.9268 1.4188 33.6218 0.864967 33.0788C0.311138 32.5359 0 31.7995 0 31.0317V18.6297C-2.33488e-06 18.25 0.076457 17.874 0.224993 17.5233C0.37353 17.1726 0.591221 16.8541 0.865584 16.5861C1.13995 16.3181 1.46558 16.1058 1.82382 15.9614C2.18206 15.817 2.56585 15.7433 2.95318 15.7446Z" fill="#A4C639"/>
<path d="M40.057 15.7446C40.8375 15.7446 41.5861 16.0486 42.138 16.5897C42.6899 17.1307 43 17.8646 43 18.6297V31.0317C43.0013 31.4114 42.9262 31.7876 42.7789 32.1388C42.6316 32.49 42.415 32.8093 42.1416 33.0782C41.8682 33.3472 41.5433 33.5606 41.1856 33.7062C40.8279 33.8518 40.4444 33.9268 40.057 33.9268C39.2738 33.9268 38.5226 33.6218 37.9688 33.0788C37.415 32.5359 37.1038 31.7995 37.1038 31.0317V18.6297C37.1038 18.25 37.1803 17.874 37.3288 17.5233C37.4774 17.1726 37.6951 16.8541 37.9694 16.5861C38.2438 16.3181 38.5694 16.1058 38.9277 15.9614C39.2859 15.817 39.6697 15.7433 40.057 15.7446Z" fill="#A4C639"/>
<path d="M8.1749 12.0581H34.7433C34.6757 9.30184 33.5048 6.68226 31.4836 4.76521L34.0485 0.497656C34.0753 0.460664 34.0936 0.418348 34.1019 0.373689C34.1103 0.32903 34.1086 0.283115 34.0969 0.239179C34.0852 0.195243 34.0638 0.154355 34.0343 0.119396C34.0047 0.0844363 33.9677 0.0562562 33.9258 0.0368408C33.8548 -0.000483829 33.7719 -0.00986479 33.6941 0.010608C33.6163 0.0310808 33.5493 0.079868 33.5069 0.147036L31.0851 4.30439C28.3256 2.19779 24.9549 1.00508 21.4591 0.898365C17.9845 1.03299 14.6384 2.22325 11.8843 4.30439L9.50332 0.187107C9.46579 0.112239 9.39997 0.0546621 9.31983 0.0266048C9.2397 -0.00145257 9.15156 0.00221937 9.07414 0.0368408C9.00488 0.0802746 8.95485 0.147693 8.93402 0.225666C8.91319 0.303639 8.92308 0.386444 8.96174 0.457585L11.4551 4.69508C9.41279 6.62849 8.2336 9.27542 8.1749 12.0581ZM25.8736 6.84889C25.8736 6.45036 26.0351 6.06816 26.3225 5.78635C26.61 5.50455 26.9998 5.34623 27.4064 5.34623C27.8129 5.34623 28.2028 5.50455 28.4902 5.78635C28.7777 6.06816 28.9391 6.45036 28.9391 6.84889C28.9391 7.24742 28.7777 7.62963 28.4902 7.91143C28.2028 8.19324 27.8129 8.35155 27.4064 8.35155C26.9998 8.35155 26.61 8.19324 26.3225 7.91143C26.0351 7.62963 25.8736 7.24742 25.8736 6.84889ZM14.49 6.84889C14.49 6.45036 14.6515 6.06816 14.939 5.78635C15.2264 5.50455 15.6163 5.34623 16.0228 5.34623C16.4293 5.34623 16.8192 5.50455 17.1067 5.78635C17.3941 6.06816 17.5556 6.45036 17.5556 6.84889C17.5556 7.24742 17.3941 7.62963 17.1067 7.91143C16.8192 8.19324 16.4293 8.35155 16.0228 8.35155C15.6163 8.35155 15.2264 8.19324 14.939 7.91143C14.6515 7.62963 14.49 7.24742 14.49 6.84889Z" fill="#A4C639"/>
</symbol><symbol id="apple-logo" viewBox="0 0 47 56">
<path d="M39.2449 29.7391C39.2544 32.1546 39.994 34.5144 41.3723 36.5268C42.7506 38.5393 44.7071 40.1162 47 41.0627C46.0779 43.8922 44.7301 46.5744 43.0003 49.0227C40.5985 52.4356 38.0949 55.8386 34.1562 55.9273C30.2176 56.0161 29.0676 53.708 24.6303 53.708C20.193 53.708 18.8292 55.8583 15.1654 55.9964C11.5016 56.1345 8.47889 52.2778 6.07705 48.8846C1.1207 41.98 -2.67543 29.246 2.41322 20.6842C3.60995 18.6123 5.34099 16.8769 7.43708 15.6476C9.53317 14.4183 11.9225 13.7373 14.3716 13.6711C18.0964 13.6021 21.6178 16.0976 23.8975 16.0976C26.1772 16.0976 30.4619 13.0892 34.9602 13.533C37.0437 13.6063 39.0815 14.1457 40.9142 15.1091C42.7468 16.0725 44.3247 17.4337 45.5243 19.0863C45.2495 19.254 39.2144 22.657 39.2754 29.7391H39.2449ZM31.9783 8.93654C34.1591 6.45976 35.2387 3.24645 34.9806 0C31.6761 0.302095 28.6167 1.81996 26.4317 4.2414C24.5692 6.33251 22.9307 9.68618 23.3785 12.9018C26.625 13.1484 29.9327 11.3038 31.9478 8.95627" fill="white"/>
</symbol><symbol id="contrast" viewBox="0 0 16 16">
<path d="M8 2C9.18669 2 10.3467 2.35189 11.3334 3.01118C12.3201 3.67047 13.0892 4.60754 13.5433 5.7039C13.9974 6.80025 14.1162 8.00665 13.8847 9.17054C13.6532 10.3344 13.0818 11.4035 12.2426 12.2426C11.4035 13.0818 10.3344 13.6532 9.17054 13.8847C8.00666 14.1162 6.80026 13.9974 5.7039 13.5433C4.60755 13.0891 3.67047 12.3201 3.01119 11.3334C2.3519 10.3467 2 9.18669 2 8C2 6.4087 2.63214 4.88258 3.75736 3.75736C4.88258 2.63214 6.4087 2 8 2ZM8 0C6.41775 0 4.87103 0.469192 3.55544 1.34824C2.23985 2.22729 1.21447 3.47672 0.608967 4.93853C0.00346625 6.40034 -0.15496 8.00887 0.153721 9.56072C0.462403 11.1126 1.22433 12.538 2.34315 13.6569C3.46197 14.7757 4.88743 15.5376 6.43928 15.8463C7.99113 16.155 9.59966 15.9965 11.0615 15.391C12.5233 14.7855 13.7727 13.7602 14.6518 12.4446C15.5308 11.129 16 9.58225 16 8C16 5.87827 15.1571 3.84344 13.6569 2.34315C12.1566 0.842855 10.1217 0 8 0Z" fill="#D22856"/>
<path d="M8 12.145C9.07679 12.0711 10.0854 11.5912 10.822 10.8023C11.5586 10.0134 11.9683 8.97432 11.9683 7.895C11.9683 6.81567 11.5586 5.77659 10.822 4.98769C10.0854 4.1988 9.07679 3.71891 8 3.645" fill="#D22856"/>
</symbol><symbol id="crop" viewBox="0 0 22 22">
<path d="M16 14H18V6C18 5.46957 17.7893 4.96086 17.4142 4.58579C17.0391 4.21071 16.5304 4 16 4H8V6H16V14ZM6 16V0H4V4H0V6H4V16C4 16.5304 4.21071 17.0391 4.58579 17.4142C4.96086 17.7893 5.46957 18 6 18H16V22H18V18H22V16H6Z" fill="#D22856"/>
</symbol><symbol id="facebook" viewBox="0 0 9 18">
<path d="M6.50865 3.19324H9V0H6.02076C2.76125 0.171067 1.59862 2.27138 2.07612 5.81626H0V9.15206H2.07612V18H6.02076V9.15206H8.97924V5.81626H6.01038C5.98962 4.81837 5.96886 3.52587 6.50865 3.19324Z" fill="#D22856"/>
</symbol><symbol id="fill" viewBox="0 0 24 22">
<path d="M16.56 9.14791L7.62 0L6.205 1.44791L8.585 3.88326L3.44 9.14791C3.1591 9.4357 3.00132 9.82581 3.00132 10.2326C3.00132 10.6393 3.1591 11.0294 3.44 11.3172L8.94 16.9451C9.22125 17.2325 9.6025 17.394 10 17.394C10.3975 17.394 10.7787 17.2325 11.06 16.9451L16.56 11.3172C16.8409 11.0294 16.9987 10.6393 16.9987 10.2326C16.9987 9.82581 16.8409 9.4357 16.56 9.14791ZM5.205 10.2326L10 5.33116L14.795 10.2326H5.205ZM19 11.7674C19 11.7674 17 13.9828 17 15.3488C17 15.8916 17.2107 16.4121 17.5858 16.7959C17.9609 17.1797 18.4696 17.3953 19 17.3953C19.5304 17.3953 20.0391 17.1797 20.4142 16.7959C20.7893 16.4121 21 15.8916 21 15.3488C21 13.9828 19 11.7674 19 11.7674Z" fill="#D22856"/>
<path d="M24 20.4651H0V22H24V20.4651Z" fill="#D22856"/>
</symbol><symbol id="microsoft-logo" viewBox="0 0 44 41">
<path d="M20.908 19.5238H0V0H20.908V19.5238Z" fill="#F05423"/>
<path d="M44 19.5238H23.092V0H44V19.5238Z" fill="#84C441"/>
<path d="M20.908 41H0V21.4762H20.908V41Z" fill="#2DABE2"/>
<path d="M44 41H23.092V21.4762H44V41Z" fill="#F9BC15"/>
</symbol><symbol id="twitter" viewBox="0 0 18 14">
<path d="M11.5641 0.168904C12.2458 -0.0461515 12.9837 -0.0560928 13.6719 0.140507C14.3602 0.337107 14.9633 0.730138 15.3947 1.26319C16.1053 1.05385 16.8055 0.815959 17.5263 0.606617C17.5164 0.925848 17.4299 1.23907 17.2732 1.52372C17.1165 1.80837 16.8935 2.05738 16.6201 2.2528C16.8726 2.27877 17.1281 2.25112 17.3673 2.17197C17.6064 2.09281 17.8228 1.96424 18 1.79606C17.901 2.20987 17.6999 2.59695 17.4123 2.92708C17.1247 3.2572 16.7585 3.52144 16.3421 3.69916C16.095 9.96988 12.9748 14.1662 5.65332 13.9949H5.14874C4.70595 13.9949 0.731121 13.5667 0 12.2441C1.75201 12.4899 3.53888 12.0976 4.98398 11.1498C3.95423 10.8643 2.13158 10.7026 1.82265 8.40934C2.2108 8.54337 2.6321 8.57306 3.03776 8.49498C1.76087 7.70519 0.339817 7.0391 0.422197 4.99327C0.819634 5.29882 1.3269 5.45507 1.84325 5.43098C1.10183 5.20261 -0.24714 2.30989 0.895881 0.825474C2.82151 2.54778 4.86041 4.17493 8.48512 4.3367C8.71167 2.20522 9.68993 0.777896 11.5641 0.168904Z" fill="#D22856"/>
</symbol><symbol id="youtube" viewBox="0 0 15 13">
<path d="M1.83356 12.8089C1.64633 12.9278 1.42471 12.9941 1.19626 12.9996C0.967817 13.0051 0.74263 12.9495 0.548717 12.8398C0.354804 12.7301 0.200724 12.571 0.105646 12.3824C0.010569 12.1938 -0.0213097 11.984 0.0139762 11.779V1.22097C-0.0213097 1.01605 0.010569 0.806234 0.105646 0.617628C0.200724 0.429021 0.354804 0.269949 0.548717 0.1602C0.74263 0.0504516 0.967817 -0.00512927 1.19626 0.000372265C1.42471 0.0058738 1.64633 0.0722149 1.83356 0.191142L14.2333 5.69284C15.2556 6.13817 15.2556 6.86183 14.2333 7.30716L1.83356 12.8089Z" fill="#D22856"/>
</symbol></svg>
